<?xml version="1.0"?>
<svg xmlns="http://www.w3.org/2000/svg" xmlns:xlink="http://www.w3.org/1999/xlink" xmlns:svgjs="http://svgjs.com/svgjs" version="1.1" width="512" height="512" x="0" y="0" viewBox="0 0 512 512" style="enable-background:new 0 0 512 512" xml:space="preserve" class=""><g><g xmlns="http://www.w3.org/2000/svg"><path d="m0 45.317v300h53v121.365l130.885-121.365h328.115v-300zm482 270h-309.885l-89.115 82.635v-82.635h-53v-240h452z" fill="#15b9d5" data-original="#000000" style="" class=""/><path d="m239.406 222.973c-4.312-1.561-8.093-3.156-11.343-4.781-3.875-1.875-7.5-3.873-10.874-5.999l-15.751 32.061c6.752 4.001 14.374 7.313 22.876 9.938 8.498 2.625 17.061 4.312 25.687 5.063v23.062h14.999v-22.689c5.749-.373 11.311-1.405 16.688-3.092 5.374-1.689 10.156-4.186 14.344-7.5 4.186-3.312 7.562-7.562 10.126-12.751 2.559-5.184 3.843-11.467 3.843-18.844 0-6.249-.936-11.561-2.813-15.937-1.875-4.374-4.564-8.091-8.061-11.156-3.502-3.062-7.72-5.72-12.657-7.97-4.939-2.25-10.471-4.312-16.594-6.187-1.376-.375-2.689-.781-3.937-1.22-1.252-.435-2.438-.778-3.564-1.03v-16.875c3.5.627 6.967 1.534 10.407 2.719 3.436 1.19 6.53 2.47 9.281 3.843 3.25 1.501 6.248 3.126 9 4.875l15.749-30.187c-2.623-1.247-5.5-2.593-8.624-4.03-3.126-1.435-6.468-2.813-10.032-4.125-3.561-1.314-7.283-2.467-11.156-3.47-3.875-.998-7.874-1.749-12-2.25v-19.125h-14.999v18.938c-5.878.627-11.41 2.062-16.594 4.312-5.189 2.25-9.72 5.251-13.593 9-3.877 3.751-6.937 8.222-9.187 13.408-2.252 5.189-3.376 11.156-3.376 17.905 0 4.875.657 9.187 1.969 12.938 1.314 3.749 3.344 7.095 6.095 10.03 2.746 2.939 6.248 5.564 10.499 7.876 4.248 2.314 9.311 4.47 15.188 6.468 3.873 1.378 7.748 2.563 11.625 3.564v16.5c-4.5-.624-8.908-1.716-13.221-3.282zm22.969-10.032c2.499 1.003 4.502 2.156 6.001 3.47 1.499 1.312 2.25 2.845 2.25 4.594 0 1.625-.627 2.939-1.875 3.937-1.252 1.003-3.376 1.627-6.377 1.875v-13.876zm-15.374-45.467c-1.252-1.188-1.875-2.719-1.875-4.594 0-3.626 2.5-5.75 7.5-6.377v14.25c-2.503-.997-4.378-2.091-5.625-3.279z" fill="#15b9d5" data-original="#000000" style="" class=""/></g></g></svg>
